<?xml version="1.0" encoding="utf-8"?>
<!-- Generator: Adobe Illustrator 23.0.1, SVG Export Plug-In . SVG Version: 6.00 Build 0)  -->
<svg version="1.1" id="Слой_1" xmlns="http://www.w3.org/2000/svg" xmlns:xlink="http://www.w3.org/1999/xlink" x="0px" y="0px"
	 viewBox="0 0 20 20" style="enable-background:new 0 0 20 20;" xml:space="preserve">
<style type="text/css">
	.st0{clip-path:url(#SVGID_2_);fill:#01A0E2;}
	.st1{fill:none;}
</style>
<g>
	<defs>
		<rect id="SVGID_1_" width="20" height="20"/>
	</defs>
	<clipPath id="SVGID_2_">
		<use xlink:href="#SVGID_1_"  style="overflow:visible;"/>
	</clipPath>
	<path class="st0" d="M18.3,16.9l-1.4-2.4c-0.7-1.1-1-2.4-1-3.6V8.8c0-2.6-1.8-4.9-4.2-5.6V1.7C11.7,0.7,10.9,0,10,0
		S8.3,0.7,8.3,1.7v1.5c-2.4,0.7-4.2,3-4.2,5.6v2.1c0,1.3-0.3,2.5-1,3.6l-1.4,2.4c-0.1,0.1-0.1,0.3,0,0.4c0.1,0.1,0.2,0.2,0.4,0.2H8
		c0,0.1-0.1,0.3-0.1,0.4c0,1.1,0.9,2.1,2.1,2.1c1.1,0,2.1-0.9,2.1-2.1c0-0.1,0-0.3-0.1-0.4h5.9c0.1,0,0.3-0.1,0.4-0.2
		C18.4,17.2,18.4,17,18.3,16.9z M9.2,1.7c0-0.5,0.4-0.8,0.8-0.8c0.5,0,0.8,0.4,0.8,0.8V3c-0.3,0-0.5-0.1-0.8-0.1S9.4,2.9,9.2,3V1.7z
		 M11.3,17.9c0,0.7-0.6,1.3-1.3,1.3c-0.7,0-1.3-0.6-1.3-1.3c0-0.1,0-0.3,0.1-0.4h2.3C11.2,17.6,11.3,17.8,11.3,17.9z M2.8,16.7
		l1.1-1.8C4.6,13.7,5,12.3,5,10.8V8.8c0-2.8,2.2-5,5-5c2.8,0,5,2.2,5,5v2.1c0,1.4,0.4,2.8,1.1,4.1l1.1,1.8H2.8z"/>
</g>
<polygon class="st1" points="10,19.6 11.1,19.1 11.5,18.2 11.5,17.2 12.2,17.1 17.8,17.1 15.8,13 15.3,8.8 14.5,5.6 12.2,3.8 
	11.1,3.3 11.2,1.5 10.4,0.6 9.5,0.6 8.9,1.3 8.6,3.4 6.8,4.3 5.1,6.5 4.6,9.6 4.4,12.8 3.4,14.9 2.4,16.5 2.1,17.1 8.3,17.1 
	8.3,17.6 8.5,18.4 9.1,19.3 "/>
</svg>
