o Cube_Cube.001
v 0.054703 0.093734 -0.893367
v 0.054703 0.521170 -0.824174
v 0.370363 0.098480 -0.835268
v 0.055731 -0.445495 -0.777284
v 0.348479 0.497521 -0.770089
v 0.357009 -0.269848 -0.755692
v 0.858181 0.026436 0.000675
v 0.804343 0.024616 -0.344594
v 0.805050 0.367768 0.000675
v 0.805050 0.013536 0.351067
v 0.770788 -0.330458 0.011605
v 0.755044 -0.291731 -0.317165
v 0.751200 0.373167 -0.327644
v 0.755044 0.344111 0.318350
v 0.723105 -0.357810 0.363299
v 0.383129 -0.078958 0.864735
v 0.361400 -0.540907 0.891035
v 0.361252 0.324321 0.758070
v 0.058794 -1.018888 0.005804
v 0.336733 -0.945505 -0.006193
v 0.067033 -0.985742 0.488438
v 0.360974 -0.953966 0.473060
v 0.064646 0.929021 -0.337194
v 0.383129 0.833137 0.001920
v 0.357665 0.878608 -0.315915
v 0.361252 0.769931 0.318350
v 0.298207 -0.673910 -0.610649
v 0.058794 -0.711850 -0.648589
v 0.054558 0.806097 -0.652350
v 0.323251 0.767479 -0.602358
v 0.593824 0.473856 -0.609574
v 0.641967 0.036356 -0.644144
v 0.605897 -0.271748 -0.593445
v 0.606473 -0.719608 0.399480
v 0.568578 -0.767596 -0.027807
v 0.533492 -0.683394 -0.322326
v 0.599996 0.732803 -0.301529
v 0.646439 0.664644 0.002332
v 0.606591 0.609404 0.294693
v 0.606591 0.314770 0.587636
v 0.646439 -0.027592 0.663659
v 0.606696 -0.419980 0.676805
v 0.065451 -0.958784 0.821014
v 0.338956 -0.937993 0.812715
v 0.339374 0.609404 0.583643
v 0.513270 -0.697267 0.647179
v 0.525853 0.522100 0.496338
v 0.462402 -0.597039 -0.533778
v 0.512369 0.676500 -0.520728
v 0.058817 -1.593829 -0.116849
v 0.336756 -1.520445 -0.128846
v 0.298229 -1.174378 -0.880745
v 0.058817 -1.212318 -0.918685
v 0.568601 -1.320632 -0.156719
v 0.533514 -1.191372 -0.597134
v 0.462424 -1.097506 -0.803874
v 0.058825 -1.830552 -0.239148
v 0.058825 -1.640226 -0.744823
v 0.336764 -1.757168 -0.251144
v 0.317501 -1.587215 -0.727777
v 0.298238 -1.411101 -1.003044
v 0.058825 -1.449041 -1.040984
v 0.568609 -1.557355 -0.279017
v 0.533523 -1.428095 -0.719432
v 0.462433 -1.334230 -0.926172
v 0.533503 -0.937383 -0.459730
v 0.568589 -1.044114 -0.092263
v 0.298218 -0.924144 -0.745697
v 0.462413 -0.847272 -0.668826
v 0.336744 -1.232975 -0.067519
v 0.058805 -1.306359 -0.055523
v 0.058805 -0.962084 -0.783637
v 0.080847 0.093734 -0.893367
v 0.080847 0.521170 -0.824174
v -0.234812 0.098480 -0.835268
v 0.079819 -0.445495 -0.777284
v -0.212929 0.497521 -0.770089
v -0.221458 -0.269848 -0.755692
v -0.722630 0.026436 0.000675
v -0.668793 0.024616 -0.344594
v -0.669499 0.367768 0.000675
v -0.669499 0.013536 0.351067
v -0.635238 -0.330458 0.011605
v -0.619494 -0.291731 -0.317165
v -0.615650 0.373167 -0.327644
v -0.619494 0.344111 0.318350
v -0.587555 -0.357810 0.363299
v 0.067775 -0.103903 0.935398
v -0.247579 -0.078958 0.864735
v 0.067775 0.343873 0.815026
v 0.067775 -0.576219 0.943285
v -0.225850 -0.540907 0.891035
v -0.225701 0.324321 0.758070
v 0.076756 -1.018888 0.005804
v -0.201183 -0.945505 -0.006193
v 0.068517 -0.985742 0.488438
v -0.225424 -0.953966 0.473060
v 0.067775 0.886654 0.001384
v 0.070904 0.929021 -0.337194
v 0.067775 0.824004 0.342007
v -0.247579 0.833137 0.001920
v -0.222114 0.878608 -0.315915
v -0.225701 0.769931 0.318350
v -0.162656 -0.673910 -0.610649
v 0.076756 -0.711850 -0.648589
v 0.080993 0.806097 -0.652350
v -0.187700 0.767479 -0.602358
v -0.458274 0.473856 -0.609574
v -0.506416 0.036356 -0.644144
v -0.470347 -0.271748 -0.593445
v -0.470922 -0.719608 0.399480
v -0.433028 -0.767596 -0.027807
v -0.397941 -0.683394 -0.322326
v -0.464446 0.732803 -0.301529
v -0.510888 0.664644 0.002332
v -0.471040 0.609404 0.294693
v -0.471040 0.314770 0.587636
v -0.510888 -0.027592 0.663659
v -0.471145 -0.419980 0.676805
v 0.070099 -0.958784 0.821014
v -0.203405 -0.937993 0.812715
v -0.203824 0.609404 0.583643
v 0.067775 0.652493 0.626732
v -0.377720 -0.697267 0.647179
v -0.390303 0.522100 0.496338
v -0.326851 -0.597039 -0.533778
v -0.376819 0.676500 -0.520728
v 0.076734 -1.593829 -0.116849
v -0.201205 -1.520445 -0.128846
v -0.162679 -1.174378 -0.880745
v 0.076734 -1.212318 -0.918685
v -0.433050 -1.320632 -0.156719
v -0.397964 -1.191372 -0.597134
v -0.326874 -1.097506 -0.803874
v 0.076725 -1.830552 -0.239148
v 0.076725 -1.640226 -0.744823
v -0.201214 -1.757168 -0.251144
v -0.181951 -1.587215 -0.727777
v -0.162688 -1.411101 -1.003044
v 0.076725 -1.449041 -1.040984
v -0.433059 -1.557355 -0.279017
v -0.397973 -1.428095 -0.719432
v -0.326883 -1.334230 -0.926172
v -0.397953 -0.937383 -0.459730
v -0.433039 -1.044114 -0.092263
v -0.162668 -0.924144 -0.745697
v -0.326863 -0.847272 -0.668826
v -0.201194 -1.232975 -0.067519
v 0.076745 -1.306359 -0.055523
v 0.076745 -0.962084 -0.783637
vn 0.1835 0.1625 -0.9695
vn 0.5728 0.1442 -0.8069
vn 0.2107 0.5172 -0.8295
vn 0.5190 0.4954 -0.6966
vn 0.1853 -0.2095 -0.9601
vn 0.2495 -0.3838 -0.8891
vn 0.5339 -0.1974 -0.8222
vn 0.5154 -0.3611 -0.7772
vn 0.9726 -0.2038 -0.1116
vn 0.8615 -0.1773 -0.4758
vn 0.8824 -0.4426 -0.1593
vn 0.7826 -0.4325 -0.4477
vn 0.9758 0.1541 -0.1552
vn 0.8989 0.4281 -0.0928
vn 0.8787 0.1431 -0.4555
vn 0.8299 0.4188 -0.3686
vn 0.9746 0.1574 0.1591
vn 0.8583 0.1915 0.4761
vn 0.8588 0.4765 0.1881
vn 0.7394 0.4747 0.4774
vn 0.9671 -0.2209 0.1262
vn 0.9285 -0.3706 0.0215
vn 0.9153 -0.1332 0.3801
vn 0.9022 -0.2933 0.3162
vn 0.1948 0.0313 0.9803
vn 0.6345 -0.0100 0.7729
vn 0.1273 -0.2509 0.9596
vn 0.7541 -0.2281 0.6159
vn 0.1961 0.2575 0.9462
vn 0.2045 0.5158 0.8319
vn 0.5595 0.2406 0.7931
vn 0.5257 0.4862 0.6980
vn 0.0641 0.4740 -0.8782
vn 0.2814 -0.2089 0.9366
vn 0.9965 0.0297 -0.0779
vn 0.1863 0.4666 -0.8646
vn 0.0968 -0.2077 0.9734
vn 0.1817 -0.9832 0.0191
vn 0.0948 -0.9933 0.0668
vn 0.6523 -0.7579 -0.0117
vn 0.7814 -0.5938 0.1920
vn 0.1628 0.9789 0.1239
vn 0.1909 0.9100 -0.3681
vn 0.5236 0.8468 0.0942
vn 0.5086 0.7732 -0.3788
vn 0.1778 0.9654 0.1908
vn 0.5375 0.8159 0.2132
vn 0.2039 0.8345 0.5119
vn 0.5256 0.6982 0.4861
vn 0.9542 0.1373 -0.2658
vn 0.4489 -0.4101 0.7939
vn 0.0679 0.4579 -0.8864
vn 0.9970 0.0357 -0.0690
vn 0.9542 0.1423 -0.2633
vn 0.2187 -0.9147 -0.3398
vn 0.5926 -0.7547 -0.2814
vn 0.2086 -0.8195 -0.5338
vn 0.5368 -0.6892 -0.4867
vn 0.1971 0.4500 -0.8710
vn 0.1575 -0.4533 0.8773
vn 0.9543 0.1421 -0.2630
vn 0.9948 0.0362 -0.0950
vn 0.2604 -0.2102 0.9423
vn -0.1835 0.1625 -0.9695
vn -0.5728 0.1442 -0.8069
vn -0.2107 0.5172 -0.8295
vn -0.5190 0.4954 -0.6966
vn -0.1853 -0.2095 -0.9601
vn -0.2495 -0.3838 -0.8891
vn -0.5339 -0.1974 -0.8222
vn -0.5154 -0.3611 -0.7772
vn -0.9726 -0.2038 -0.1116
vn -0.8615 -0.1773 -0.4758
vn -0.8824 -0.4426 -0.1593
vn -0.7826 -0.4325 -0.4477
vn -0.9758 0.1541 -0.1552
vn -0.8989 0.4281 -0.0928
vn -0.8787 0.1431 -0.4555
vn -0.8299 0.4188 -0.3686
vn -0.9746 0.1574 0.1591
vn -0.8583 0.1915 0.4761
vn -0.8588 0.4765 0.1881
vn -0.7394 0.4747 0.4774
vn -0.9671 -0.2209 0.1262
vn -0.9285 -0.3706 0.0215
vn -0.9153 -0.1332 0.3801
vn -0.9022 -0.2933 0.3162
vn -0.1948 0.0313 0.9803
vn -0.6345 -0.0100 0.7729
vn -0.1273 -0.2509 0.9596
vn -0.7541 -0.2281 0.6159
vn -0.1961 0.2575 0.9462
vn -0.2045 0.5158 0.8319
vn -0.5595 0.2406 0.7931
vn -0.5257 0.4862 0.6980
vn -0.0641 0.4740 -0.8782
vn -0.2814 -0.2089 0.9366
vn -0.9965 0.0297 -0.0779
vn -0.1863 0.4666 -0.8646
vn -0.0968 -0.2077 0.9734
vn -0.1817 -0.9832 0.0191
vn -0.0948 -0.9933 0.0668
vn -0.6523 -0.7579 -0.0117
vn -0.7814 -0.5938 0.1920
vn -0.1628 0.9789 0.1239
vn -0.1909 0.9100 -0.3681
vn -0.5236 0.8468 0.0942
vn -0.5086 0.7732 -0.3788
vn -0.1778 0.9654 0.1908
vn -0.5375 0.8159 0.2132
vn -0.2039 0.8345 0.5119
vn -0.5256 0.6982 0.4861
vn -0.9542 0.1373 -0.2658
vn -0.4489 -0.4101 0.7939
vn -0.0679 0.4579 -0.8864
vn -0.9970 0.0357 -0.0690
vn -0.9542 0.1423 -0.2633
vn -0.2187 -0.9147 -0.3398
vn -0.5926 -0.7547 -0.2814
vn -0.2086 -0.8195 -0.5338
vn -0.5368 -0.6892 -0.4867
vn -0.1971 0.4500 -0.8710
vn -0.1575 -0.4533 0.8773
vn -0.9543 0.1421 -0.2630
vn -0.9948 0.0362 -0.0950
vn -0.2604 -0.2102 0.9423
usemtl None
s off
f 1//1 2//1 5//1 3//1
f 3//2 5//2 31//2 32//2
f 2//3 29//3 30//3 5//3
f 5//4 30//4 49//4 31//4
f 1//5 3//5 6//5 4//5
f 4//6 6//6 27//6 28//6
f 3//7 32//7 33//7 6//7
f 6//8 33//8 48//8 27//8
f 7//9 11//9 12//9 8//9
f 8//10 12//10 33//10 32//10
f 11//11 35//11 36//11 12//11
f 12//12 36//12 48//12 33//12
f 7//13 8//13 13//13 9//13
f 9//14 13//14 37//14 38//14
f 8//15 32//15 31//15 13//15
f 13//16 31//16 49//16 37//16
f 7//17 9//17 14//17 10//17
f 10//18 14//18 40//18 41//18
f 9//19 38//19 39//19 14//19
f 14//20 39//20 47//20 40//20
f 7//21 10//21 15//21 11//21
f 11//22 15//22 34//22 35//22
f 10//23 41//23 42//23 15//23
f 15//24 42//24 46//24 34//24
f 88//25 91//25 17//25 16//25
f 16//26 17//26 42//26 41//26
f 91//27 43//27 44//27 17//27
f 17//28 44//28 46//28 42//28
f 88//29 16//29 18//29 90//29
f 90//30 18//30 45//30 123//30
f 16//31 41//31 40//31 18//31
f 18//32 40//32 47//32 45//32
f 72//33 68//33 52//33 53//33
f 67//34 70//34 51//34 54//34
f 66//35 67//35 54//35 55//35
f 68//36 69//36 56//36 52//36
f 70//37 71//37 50//37 51//37
f 19//38 20//38 22//38 21//38
f 21//39 22//39 44//39 43//39
f 20//40 35//40 34//40 22//40
f 22//41 34//41 46//41 44//41
f 98//42 24//42 25//42 23//42
f 23//43 25//43 30//43 29//43
f 24//44 38//44 37//44 25//44
f 25//45 37//45 49//45 30//45
f 98//46 100//46 26//46 24//46
f 24//47 26//47 39//47 38//47
f 100//48 123//48 45//48 26//48
f 26//49 45//49 47//49 39//49
f 56//50 55//50 64//50 65//50
f 54//51 51//51 59//51 63//51
f 53//52 52//52 61//52 62//52
f 55//53 54//53 63//53 64//53
f 69//54 66//54 55//54 56//54
f 57//55 58//55 60//55 59//55
f 59//56 60//56 64//56 63//56
f 58//57 62//57 61//57 60//57
f 60//58 61//58 65//58 64//58
f 52//59 56//59 65//59 61//59
f 51//60 50//60 57//60 59//60
f 48//61 36//61 66//61 69//61
f 20//37 19//37 71//37 70//37
f 27//36 48//36 69//36 68//36
f 36//62 35//62 67//62 66//62
f 35//63 20//63 70//63 67//63
f 28//33 27//33 68//33 72//33
f 73//64 75//64 77//64 74//64
f 75//65 109//65 108//65 77//65
f 74//66 77//66 107//66 106//66
f 77//67 108//67 127//67 107//67
f 73//68 76//68 78//68 75//68
f 76//69 105//69 104//69 78//69
f 75//70 78//70 110//70 109//70
f 78//71 104//71 126//71 110//71
f 79//72 80//72 84//72 83//72
f 80//73 109//73 110//73 84//73
f 83//74 84//74 113//74 112//74
f 84//75 110//75 126//75 113//75
f 79//76 81//76 85//76 80//76
f 81//77 115//77 114//77 85//77
f 80//78 85//78 108//78 109//78
f 85//79 114//79 127//79 108//79
f 79//80 82//80 86//80 81//80
f 82//81 118//81 117//81 86//81
f 81//82 86//82 116//82 115//82
f 86//83 117//83 125//83 116//83
f 79//84 83//84 87//84 82//84
f 83//85 112//85 111//85 87//85
f 82//86 87//86 119//86 118//86
f 87//87 111//87 124//87 119//87
f 88//88 89//88 92//88 91//88
f 89//89 118//89 119//89 92//89
f 91//90 92//90 121//90 120//90
f 92//91 119//91 124//91 121//91
f 88//92 90//92 93//92 89//92
f 90//93 123//93 122//93 93//93
f 89//94 93//94 117//94 118//94
f 93//95 122//95 125//95 117//95
f 150//96 131//96 130//96 146//96
f 145//97 132//97 129//97 148//97
f 144//98 133//98 132//98 145//98
f 146//99 130//99 134//99 147//99
f 148//100 129//100 128//100 149//100
f 94//101 96//101 97//101 95//101
f 96//102 120//102 121//102 97//102
f 95//103 97//103 111//103 112//103
f 97//104 121//104 124//104 111//104
f 98//105 99//105 102//105 101//105
f 99//106 106//106 107//106 102//106
f 101//107 102//107 114//107 115//107
f 102//108 107//108 127//108 114//108
f 98//109 101//109 103//109 100//109
f 101//110 115//110 116//110 103//110
f 100//111 103//111 122//111 123//111
f 103//112 116//112 125//112 122//112
f 134//113 143//113 142//113 133//113
f 132//114 141//114 137//114 129//114
f 131//115 140//115 139//115 130//115
f 133//116 142//116 141//116 132//116
f 147//117 134//117 133//117 144//117
f 135//118 137//118 138//118 136//118
f 137//119 141//119 142//119 138//119
f 136//120 138//120 139//120 140//120
f 138//121 142//121 143//121 139//121
f 130//122 139//122 143//122 134//122
f 129//123 137//123 135//123 128//123
f 126//124 147//124 144//124 113//124
f 95//100 148//100 149//100 94//100
f 104//99 146//99 147//99 126//99
f 113//125 144//125 145//125 112//125
f 112//126 145//126 148//126 95//126
f 105//96 150//96 146//96 104//96
